<?xml version="1.0" encoding="UTF-8"?>
<svg id="Layer_1" xmlns="http://www.w3.org/2000/svg" version="1.1" viewBox="0 0 2898 2176">
  <!-- Generator: Adobe Illustrator 29.6.1, SVG Export Plug-In . SVG Version: 2.1.1 Build 9)  -->
  <defs>
    <style>
      .st0 {
        fill: #1d60ba;
      }

      .st1 {
        fill: #ff8225;
      }
    </style>
  </defs>
  <g>
    <path class="st0" d="M-534.21-168.58v-33.12h-58.19v33.12h-20.24v-80.51h20.24v30.02h58.19v-30.02h20.24v80.51h-20.24Z"/>
    <path class="st0" d="M-399.3-168.58l-9.32-16.1h-56.7l-9.32,16.1h-21.51l46.23-80.51h25.88l46.23,80.51h-21.51ZM-436.91-234.02l-18.4,31.97h36.8l-18.4-31.97Z"/>
    <path class="st0" d="M-359.97-168.58v-80.51h20.24v63.14h71.42v17.37h-91.66Z"/>
    <path class="st0" d="M-156.52-168.58l-9.32-16.1h-56.7l-9.32,16.1h-21.51l46.23-80.51h25.88l46.23,80.51h-21.51ZM-194.13-234.02l-18.4,31.97h36.8l-18.4-31.97Z"/>
    <path class="st0" d="M-587.34-51.73c-1.99,3.45-4.56,6.61-7.71,9.49-3.14,2.88-6.83,5.39-11.04,7.53-4.22,2.15-8.93,3.82-14.15,5-5.21,1.19-10.93,1.78-17.14,1.78-8.82,0-16.7-1.15-23.63-3.45-6.94-2.3-12.81-5.41-17.6-9.32-4.79-3.91-8.45-8.45-10.98-13.63-2.53-5.18-3.8-10.68-3.8-16.5s1.27-11.33,3.8-16.5c2.53-5.18,6.19-9.72,10.98-13.63,4.79-3.91,10.66-7.02,17.6-9.32,6.94-2.3,14.82-3.45,23.63-3.45,5.98,0,11.52.56,16.62,1.67,5.1,1.11,9.72,2.68,13.86,4.72,4.14,2.03,7.78,4.41,10.93,7.13,3.14,2.72,5.75,5.69,7.82,8.91l-18.17,9.2c-1.15-1.92-2.7-3.72-4.66-5.41-1.96-1.69-4.29-3.14-7.02-4.37-2.72-1.23-5.79-2.2-9.2-2.93-3.41-.73-7.07-1.09-10.98-1.09-5.68,0-10.64.67-14.89,2.01-4.26,1.34-7.78,3.16-10.58,5.46-2.8,2.3-4.91,4.97-6.33,7.99-1.42,3.03-2.13,6.23-2.13,9.6s.71,6.46,2.13,9.49c1.42,3.03,3.53,5.69,6.33,7.99,2.8,2.3,6.33,4.14,10.58,5.52,4.26,1.38,9.22,2.07,14.89,2.07,4.14,0,7.97-.4,11.5-1.21,3.53-.81,6.67-1.9,9.43-3.28,2.76-1.38,5.14-2.99,7.13-4.83,1.99-1.84,3.49-3.8,4.49-5.87l18.29,9.2Z"/>
    <path class="st0" d="M-477.28-30.57l-9.32-16.1h-56.7l-9.32,16.1h-21.51l46.23-80.51h25.88l46.23,80.51h-21.51ZM-514.89-96.01l-18.4,31.97h36.8l-18.4-31.97Z"/>
    <path class="st0" d="M-339.27-84.62c0,3.53-.46,6.63-1.38,9.32-.92,2.68-2.13,5-3.62,6.96-1.5,1.96-3.18,3.59-5.06,4.89-1.88,1.3-3.78,2.34-5.69,3.11l14.03,29.79h-21.62l-12.88-27.49h-42.21v27.49h-20.24v-80.51h72.34c2.15,0,4.73.38,7.76,1.15,3.03.77,5.92,2.13,8.68,4.08,2.76,1.96,5.1,4.64,7.02,8.05,1.92,3.41,2.87,7.8,2.87,13.17ZM-359.51-84.62c0-1.92-.34-3.47-1.04-4.66-.69-1.19-1.53-2.11-2.53-2.76-1-.65-2.01-1.09-3.05-1.32s-1.86-.35-2.47-.35h-49.11v18.29h49.11c.46,0,1.19-.13,2.19-.4,1-.27,2.01-.75,3.05-1.44,1.04-.69,1.94-1.63,2.7-2.82.77-1.19,1.15-2.7,1.15-4.54Z"/>
    <path class="st0" d="M-210.89-70.82c0,5.83-1.27,11.33-3.8,16.5-2.53,5.18-6.19,9.72-10.98,13.63-4.79,3.91-10.66,7.02-17.6,9.32-6.94,2.3-14.82,3.45-23.63,3.45s-16.7-1.15-23.63-3.45c-6.94-2.3-12.81-5.41-17.6-9.32-4.79-3.91-8.45-8.45-10.98-13.63-2.53-5.18-3.8-10.68-3.8-16.5s1.27-11.33,3.8-16.5c2.53-5.18,6.19-9.72,10.98-13.63,4.79-3.91,10.66-7.02,17.6-9.32,6.94-2.3,14.82-3.45,23.63-3.45,5.9,0,11.35.56,16.33,1.67,4.98,1.11,9.53,2.63,13.63,4.54,4.1,1.92,7.72,4.2,10.87,6.84,3.14,2.65,5.79,5.54,7.94,8.68l-17.83,9.09c-2.45-3.83-6.25-7.03-11.39-9.6-5.14-2.57-11.66-3.85-19.55-3.85-5.83,0-10.95.69-15.35,2.07-4.41,1.38-8.11,3.24-11.1,5.58-2.99,2.34-5.23,5.04-6.73,8.11-1.49,3.07-2.24,6.33-2.24,9.78s.75,6.71,2.24,9.78c1.5,3.07,3.74,5.77,6.73,8.11,2.99,2.34,6.69,4.2,11.1,5.58,4.41,1.38,9.53,2.07,15.35,2.07,8.66,0,15.77-1.48,21.33-4.43,5.56-2.95,9.49-6.69,11.79-11.21h-41.06v-15.64h63.49c.15.92.27,1.86.34,2.82.08.96.12,1.94.12,2.93Z"/>
    <path class="st0" d="M-85-70.82c0,5.83-1.23,11.33-3.68,16.5-2.45,5.18-6,9.72-10.64,13.63-4.64,3.91-10.29,7.02-16.96,9.32-6.67,2.3-14.22,3.45-22.66,3.45s-15.99-1.15-22.66-3.45c-6.67-2.3-12.33-5.41-16.96-9.32-4.64-3.91-8.19-8.45-10.64-13.63-2.45-5.18-3.68-10.68-3.68-16.5s1.23-11.33,3.68-16.5c2.45-5.18,6-9.72,10.64-13.63,4.64-3.91,10.29-7.02,16.96-9.32,6.67-2.3,14.22-3.45,22.66-3.45s15.99,1.15,22.66,3.45c6.67,2.3,12.32,5.41,16.96,9.32,4.64,3.91,8.18,8.45,10.64,13.63,2.45,5.18,3.68,10.68,3.68,16.5ZM-106.28-70.82c0-3.45-.67-6.73-2.01-9.83-1.34-3.11-3.37-5.85-6.1-8.22-2.72-2.38-6.13-4.26-10.24-5.64-4.1-1.38-8.88-2.07-14.32-2.07s-10.22.69-14.32,2.07c-4.1,1.38-7.52,3.26-10.24,5.64-2.72,2.38-4.75,5.12-6.1,8.22-1.34,3.11-2.01,6.38-2.01,9.83s.67,6.73,2.01,9.83c1.34,3.11,3.37,5.85,6.1,8.22,2.72,2.38,6.13,4.26,10.24,5.64,4.1,1.38,8.87,2.07,14.32,2.07s10.22-.69,14.32-2.07c4.1-1.38,7.51-3.26,10.24-5.64,2.72-2.38,4.75-5.12,6.1-8.22,1.34-3.11,2.01-6.38,2.01-9.83Z"/>
  </g>
  <polygon class="st1" points="-947.08 -439.32 -1017.46 -444.82 -1173.32 -288.97 -1176.18 -268.97 -1109.26 -181.66 -1052.76 -176.15 -727.37 -501.54 -798.37 -508.47 -1061.73 -245.11 -1133.95 -252.45 -947.08 -439.32"/>
  <polyline class="st1" points="-1205.82 -23.37 -992.22 -236.69 -1063.21 -243.63 -1264.69 -42.43"/>
  <polyline class="st1" points="-1362.29 -23.05 -1172.95 -212.39 -1200.71 -262.55 -1421.16 -42.11"/>
  <polygon class="st0" points="-959.62 -42.07 -902.4 -23.37 -683.92 -242.55 -681.07 -262.55 -747.98 -349.86 -804.49 -355.37 -1118.42 -41.43 -1058.88 -23.05 -795.51 -286.41 -723.29 -279.07 -959.62 -42.07"/>
  <polygon class="st1" points="-845.7 -509.97 -687.97 -497.12 -626.63 -647 -845.7 -509.97"/>
  <g>
    <path class="st0" d="M957.79,1372.42v-33.12h-58.19v33.12h-20.24v-80.51h20.24v30.02h58.19v-30.02h20.24v80.51h-20.24Z"/>
    <path class="st0" d="M1092.7,1372.42l-9.32-16.1h-56.7l-9.32,16.1h-21.51l46.23-80.51h25.88l46.23,80.51h-21.51ZM1055.09,1306.98l-18.4,31.97h36.8l-18.4-31.97Z"/>
    <path class="st0" d="M1114.03,1350v-58.09h20.24v63.14h71.42l-11.69,17.37h-66.57"/>
    <path class="st0" d="M1302.48,1372.42l-9.32-16.1h-56.7l-9.32,16.1h-21.51l46.23-80.51h25.88l46.23,80.51h-21.51ZM1264.87,1306.98l-18.4,31.97h36.8l-18.4-31.97Z"/>
    <path class="st1" d="M1502.66,1351.27c-1.99,3.45-4.56,6.61-7.71,9.49-3.14,2.88-6.83,5.39-11.04,7.53-4.22,2.15-8.93,3.82-14.15,5-5.21,1.19-10.93,1.78-17.14,1.78-8.82,0-16.7-1.15-23.63-3.45-6.94-2.3-12.81-5.41-17.6-9.32-4.79-3.91-8.45-8.45-10.98-13.63-2.53-5.18-3.8-10.68-3.8-16.5s1.27-11.33,3.8-16.5c2.53-5.18,6.19-9.72,10.98-13.63,4.79-3.91,10.66-7.02,17.6-9.32,6.94-2.3,14.82-3.45,23.63-3.45,5.98,0,11.52.56,16.62,1.67,5.1,1.11,9.72,2.68,13.86,4.72,4.14,2.03,7.78,4.41,10.93,7.13,3.14,2.72,5.75,5.69,7.82,8.91l-18.17,9.2c-1.15-1.92-2.7-3.72-4.66-5.41-1.96-1.69-4.29-3.14-7.02-4.37-2.72-1.23-5.79-2.2-9.2-2.93-3.41-.73-7.07-1.09-10.98-1.09-5.68,0-10.64.67-14.89,2.01-4.26,1.34-7.78,3.16-10.58,5.46-2.8,2.3-4.91,4.97-6.33,7.99-1.42,3.03-2.13,6.23-2.13,9.6s.71,6.46,2.13,9.49c1.42,3.03,3.53,5.69,6.33,7.99,2.8,2.3,6.33,4.14,10.58,5.52,4.26,1.38,9.22,2.07,14.89,2.07,4.14,0,7.97-.4,11.5-1.21,3.53-.81,6.67-1.9,9.43-3.28,2.76-1.38,5.14-2.99,7.13-4.83,1.99-1.84,3.49-3.8,4.49-5.87l18.29,9.2Z"/>
    <path class="st1" d="M1605.72,1372.43l-9.32-16.1h-56.7l-9.32,16.1h-21.51l46.23-80.51h25.88l46.23,80.51h-21.51ZM1568.11,1306.99l-18.4,31.97h36.8l-18.4-31.97Z"/>
    <path class="st1" d="M1627.05,1351v-59.08h72.34c2.15,0,4.73.38,7.76,1.15,3.03.77,5.92,2.13,8.68,4.08,2.76,1.96,5.1,4.64,7.02,8.05,1.92,3.41,2.87,7.8,2.87,13.17,0,3.53-.46,6.63-1.38,9.32-.92,2.68-2.13,5-3.62,6.96-1.5,1.96-3.18,3.59-5.06,4.89-1.88,1.3-3.78,2.34-5.69,3.11l14.03,29.79h-21.62l-12.88-27.49h-42.21v27.49h-7.29l-12.95-21.43ZM1705.49,1318.38c0-1.92-.34-3.47-1.04-4.66-.69-1.19-1.53-2.11-2.53-2.76-1-.65-2.01-1.09-3.05-1.32s-1.86-.35-2.47-.35h-49.11v18.29h49.11c.46,0,1.19-.13,2.19-.4,1-.27,2.01-.75,3.05-1.44,1.04-.69,1.94-1.63,2.7-2.82.77-1.19,1.15-2.7,1.15-4.54Z"/>
    <path class="st1" d="M1834.99,1329.24c-.08-.96-.19-1.9-.34-2.82h-63.49v15.64h41.06c-2.3,4.52-6.23,8.26-11.79,11.21-5.56,2.95-12.67,4.43-21.33,4.43-5.83,0-10.95-.69-15.35-2.07-4.41-1.38-8.11-3.24-11.1-5.58-2.99-2.34-5.23-5.04-6.73-8.11-1.49-3.07-2.24-6.33-2.24-9.78s.75-6.71,2.24-9.78c1.5-3.07,3.74-5.77,6.73-8.11,2.99-2.34,6.69-4.2,11.1-5.58,4.41-1.38,9.53-2.07,15.35-2.07,7.9,0,14.41,1.28,19.55,3.85,5.14,2.57,8.93,5.77,11.39,9.6l17.83-9.09c-2.15-3.14-4.79-6.04-7.94-8.68-3.14-2.65-6.77-4.93-10.87-6.84-4.1-1.92-8.65-3.43-13.63-4.54-4.98-1.11-10.43-1.67-16.33-1.67-8.82,0-16.7,1.15-23.63,3.45-6.94,2.3-12.81,5.41-17.6,9.32-1.37,1.12-2.64,2.3-3.83,3.52,1.79,3.36,2.69,7.62,2.69,12.81,0,3.53-.46,6.63-1.38,9.32-.92,2.68-2.13,5-3.62,6.96-1.5,1.96-3.18,3.59-5.06,4.89-.83.58-1.67,1.1-2.52,1.57.63,2.6,1.53,5.12,2.73,7.57,2.53,5.18,6.19,9.72,10.98,13.63,4.79,3.91,10.66,7.02,17.6,9.32,6.94,2.3,14.82,3.45,23.63,3.45s16.69-1.15,23.63-3.45c6.94-2.3,12.8-5.41,17.6-9.32,4.79-3.91,8.45-8.45,10.98-13.63,2.53-5.18,3.8-10.68,3.8-16.5,0-1-.04-1.97-.11-2.93Z"/>
    <path class="st1" d="M1932.32,1315.67c-2.45-5.18-6-9.72-10.64-13.63-4.64-3.91-10.29-7.02-16.96-9.32-6.67-2.3-14.22-3.45-22.66-3.45s-15.99,1.15-22.66,3.45c-6.67,2.3-12.33,5.41-16.96,9.32-1,.84-1.94,1.72-2.84,2.62.08.12.18.23.26.35l-1.17.6c-2.84,3.04-5.15,6.39-6.89,10.06-.74,1.55-1.35,3.14-1.86,4.75h16.71c.15.92.27,1.86.34,2.82.08.96.11,1.94.11,2.93,0,5.83-1.27,11.33-3.8,16.5-2.06,4.2-4.87,7.98-8.42,11.35,2.07,3.02,4.58,5.78,7.55,8.27,4.64,3.91,10.29,7.02,16.96,9.32,6.67,2.3,14.22,3.45,22.66,3.45s15.99-1.15,22.66-3.45c6.67-2.3,12.32-5.41,16.96-9.32,4.64-3.91,8.18-8.45,10.64-13.63,2.45-5.18,3.68-10.68,3.68-16.5s-1.23-11.33-3.68-16.5ZM1912.71,1342.01c-1.34,3.11-3.37,5.85-6.1,8.22-2.72,2.38-6.13,4.26-10.24,5.64-4.1,1.38-8.88,2.07-14.32,2.07s-10.22-.69-14.32-2.07c-4.1-1.38-7.52-3.26-10.24-5.64-2.72-2.38-4.75-5.12-6.1-8.22-1.34-3.11-2.01-6.38-2.01-9.83s.67-6.73,2.01-9.83c1.34-3.11,3.37-5.85,6.1-8.22,2.72-2.38,6.13-4.26,10.24-5.64,4.1-1.38,8.87-2.07,14.32-2.07s10.22.69,14.32,2.07c4.1,1.38,7.51,3.26,10.24,5.64,2.72,2.38,4.75,5.12,6.1,8.22,1.34,3.11,2.01,6.38,2.01,9.83s-.67,6.73-2.01,9.83Z"/>
  </g>
  <polygon class="st1" points="1586.92 812.68 1516.54 807.18 1360.68 963.03 1357.82 983.03 1424.74 1070.34 1481.24 1075.85 1806.63 750.46 1735.63 743.53 1472.27 1006.89 1400.05 999.55 1586.92 812.68"/>
  <polyline class="st1" points="1328.18 1228.63 1541.78 1015.31 1470.79 1008.37 1269.31 1209.57"/>
  <polyline class="st1" points="1171.71 1228.95 1361.05 1039.61 1333.29 989.45 1112.84 1209.89"/>
  <polygon class="st0" points="1574.38 1209.93 1631.6 1228.63 1850.08 1009.45 1852.93 989.45 1786.02 902.14 1729.51 896.63 1415.58 1210.57 1475.12 1228.95 1738.49 965.59 1810.71 972.93 1574.38 1209.93"/>
  <polygon class="st1" points="1688.3 742.03 1846.03 754.88 1907.37 605 1688.3 742.03"/>
  <g>
    <path class="st1" d="M886.01,1499.55c-5.44,0-10.16-.68-14.17-2.03-4.01-1.35-7.28-3.45-9.81-6.3-2.53-2.85-4.41-6.49-5.65-10.93-1.24-4.44-1.86-9.69-1.86-15.76,0-5.7.74-10.62,2.22-14.78,1.48-4.16,3.72-7.57,6.73-10.23,3.01-2.66,6.87-4.64,11.59-5.95,4.72-1.31,10.28-1.96,16.68-1.96,7.35,0,13.67.42,18.97,1.26,5.3.84,10.42,2.29,15.39,4.34v37.13l-12.88,25.22h-27.2ZM894.17,1539.2l-15.46-16.53c3.72-3.08,7.09-6.56,10.09-10.44,3.01-3.88,5.58-7.94,7.73-12.19,2.15-4.25,3.79-8.55,4.94-12.89,1.15-4.34,1.72-8.62,1.72-12.82h22.9c0,5.7-.77,11.47-2.29,17.3-1.53,5.84-3.67,11.56-6.44,17.16-2.77,5.6-6.11,10.97-10.02,16.11-3.91,5.14-8.3,9.9-13.17,14.29ZM878.85,1474.33h18.75c2.1,0,3.55-.37,4.37-1.12.81-.75,1.22-2.15,1.22-4.2v-12.19h-15.89c-3.25,0-5.46.37-6.66,1.12-1.19.75-1.79,2.15-1.79,4.2v12.19ZM916.07,1499.55v-25.22h81.26v25.22h-81.26ZM997.33,1499.55v-25.22c.86,0,1.55,1.17,2.08,3.5.52,2.34.79,5.37.79,9.11,0,3.92-.26,7-.79,9.25-.53,2.24-1.22,3.36-2.08,3.36Z"/>
    <path class="st1" d="M997.33,1499.55c-.86,0-61.34-1.12-61.86-3.36-.52-2.24-.79-5.32-.79-9.25s.26-6.77.79-9.11c.53-2.33,61.01-3.5,61.86-3.5v25.22ZM997.33,1499.55v-25.22h22.04c4.58,0,8.52-.49,11.81-1.47,3.29-.98,6.03-2.33,8.23-4.06,2.19-1.73,4.01-3.76,5.44-6.1,1.43-2.33,2.58-4.9,3.44-7.71l21.33,6.73c-2.1,7.28-4.94,13.36-8.52,18.21-3.58,4.86-7.68,8.71-12.31,11.56-4.63,2.85-9.57,4.9-14.81,6.16-5.25,1.26-10.64,1.89-16.17,1.89h-20.47ZM1064.03,1478.67c-3.15,0-5.68-.63-7.59-1.89-1.91-1.26-3.39-3.24-4.44-5.95-1.15-3.08-2.74-5.67-4.8-7.78-2.05-2.1-4.68-3.66-7.87-4.69-3.2-1.03-7.23-1.54-12.09-1.54-2.67,0-5.58.07-8.73.21-3.15.14-6.49.44-10.02.91l-3.44-24.8c4.01-.47,7.8-.84,11.38-1.12,3.58-.28,6.99-.42,10.23-.42,7.82,0,14.43.77,19.82,2.31,5.39,1.54,9.9,3.92,13.53,7.15,3.63,3.22,6.58,7.35,8.87,12.4h13.03v25.22h-17.89ZM1038.7,1534.57c-1.43,0-3.1-.7-5.01-2.1-1.91-1.4-3.58-3.04-5.01-4.9-1.43-1.87-2.15-3.5-2.15-4.9,0-1.59.69-3.29,2.08-5.11,1.38-1.82,3.03-3.41,4.94-4.76,1.91-1.35,3.63-2.03,5.15-2.03,1.62,0,3.36.68,5.22,2.03,1.86,1.35,3.48,2.94,4.87,4.76,1.38,1.82,2.08,3.52,2.08,5.11,0,1.4-.72,3.03-2.15,4.9-1.43,1.87-3.08,3.5-4.94,4.9-1.86,1.4-3.56,2.1-5.08,2.1Z"/>
    <path class="st1" d="M1167.94,1499.55v-88.26h22.9v63.05h64v25.22h-86.9ZM1254.84,1499.55v-25.22c.86,0,1.55,1.17,2.08,3.5.52,2.34.79,5.37.79,9.11,0,3.92-.26,7-.79,9.25-.53,2.24-1.22,3.36-2.08,3.36Z"/>
    <path class="st1" d="M1254.84,1499.55c-.86,0-55.53-1.12-56.05-3.36-.52-2.24-.79-5.32-.79-9.25s.26-6.77.79-9.11c.53-2.33,55.2-3.5,56.05-3.5v25.22ZM1254.84,1499.55v-25.22h71.14v-14.01h-42.37c-5.54,0-9.81-1.56-12.81-4.69-3.01-3.13-4.51-7.59-4.51-13.38,0-3.64.57-7.54,1.72-11.7,1.15-4.16,2.74-8.36,4.8-12.61,2.05-4.25,4.46-8.31,7.23-12.19,2.77-3.87,5.77-7.31,9.02-10.3l18.18,9.67c-1.72,1.5-3.58,3.5-5.58,6.02-2,2.52-3.96,5.25-5.87,8.2-1.91,2.94-3.56,5.79-4.94,8.55-1.38,2.76-2.31,5.16-2.79,7.22h32.21c7.35,0,13.1.84,17.25,2.52,4.15,1.68,7.09,4.55,8.8,8.62,1.72,4.06,2.58,9.69,2.58,16.88v36.43h-94.04Z"/>
    <path class="st0" d="M1452.59,1499.43v-25.22h100.2v25.22h-100.2ZM1473.49,1482.05l-5.15-58.98h22.9l5.3,58.98h-23.05ZM1519.87,1482.05v-70.89h22.9v70.89h-22.9ZM1552.79,1499.43v-25.22c.86,0,1.55,1.17,2.08,3.5.52,2.34,300.91,5.37,300.91,9.11,0,3.92-300.39,7-300.91,9.25-.53,2.24-1.22,3.36-2.08,3.36Z"/>
    <path class="st0" d="M1552.79,1499.43c-.86,0-1.55-1.12-2.08-3.36-.52-2.24-.79-5.32-.79-9.25s.26-6.77.79-9.11c.53-2.33,1.22-3.5,2.08-3.5v25.22ZM1552.79,1499.43v-25.22h379.42l-4.29-17.09c-.95-4.01-2.72-7.4-5.3-10.16-2.58-2.75-6.54-4.86-11.88-6.3-5.35-1.45-12.74-2.17-22.19-2.17l1.29-24.52c13.07,0,23.59,1.12,31.56,3.36,7.97,2.24,14.12,5.86,18.46,10.86,4.34,5,7.51,11.65,9.52,19.96l7.87,31.66v19.61h-404.47ZM1863.5,1478.41c0-6.73.45-12.17,1.36-16.32.91-4.16,2.43-7.31,4.58-9.46,2.15-2.15,5.06-3.59,8.73-4.34,3.67-.75,8.28-1.12,13.81-1.12s10.14.38,13.81,1.12c3.67.75,6.58,2.2,8.73,4.34,2.15,2.15,3.67,5.28,4.58,9.39.91,4.11,1.36,9.57,1.36,16.39h-56.97ZM1883.54,1478.41h16.89v-13.03h-12.31c-1.43,0-2.55.33-3.36.98-.81.66-1.22,1.64-1.22,2.94v9.11Z"/>
  </g>
  <path class="st1" d="M1112.85,1540.96l-8.24-20.46c3.79-1.61,6.63-3.27,8.53-4.97,1.89-1.71,3.2-4.03,3.91-6.96.71-2.94,1.07-6.96,1.07-12.08v-62.81h22.74v62.81c0,8.05-.92,14.87-2.77,20.46-1.85,5.59-4.81,10.3-8.88,14.14-4.07,3.84-9.52,7.13-16.34,9.88Z"/>
</svg>